# xmcd
# 
# Track frame offsets:
#     150
#     38127
#     78113
#     104334
#     143304
#     147743
#     176165
#     204227
#     244781
# 
# Disc length: 3533
# 
# Revision: 1
# Processed by: cddbd v1.5.2PL0 Copyright (c) Steve Scherf et al.
# Submitted via: BonkEnc v1.0.8
# 
DISCID=740dcb09
DTITLE=Drew Gress, Ralph Alessi, Tim Berne, Craig Taborn, Tom Rainey - 7 Black Butterflies
DYEAR=2004
DGENRE=Contemporary Jazz
TTITLE0=Rhinoceros
TTITLE1=Bright Idea
TTITLE2=New Leaf
TTITLE3=Zaftig
TTITLE4=Bas Relief
TTITLE5=Blue On One Side
TTITLE6=Wing and Prayer
TTITLE7=Low Slung/High Strung
TTITLE8=Like It Never Was
EXTD=YEAR: 2005
EXTT0=
EXTT1=
EXTT2=
EXTT3=
EXTT4=
EXTT5=
EXTT6=
EXTT7=
EXTT8=
PLAYORDER=
